<svg xmlns="http://www.w3.org/2000/svg" xmlns:xlink="http://www.w3.org/1999/xlink" width="500" zoomAndPan="magnify" viewBox="0 0 375 374.999991" height="500" preserveAspectRatio="xMidYMid meet" version="1.0"><defs><g/><clipPath id="ab115d8456"><path d="M 87.207031 37.5 L 287.457031 37.5 L 287.457031 237.75 L 87.207031 237.75 Z M 87.207031 37.5 " clip-rule="nonzero"/></clipPath></defs><g clip-path="url(#ab115d8456)"><path fill="#ffffff" d="M 287.785156 137.789062 C 287.785156 139.429688 287.746094 141.070312 287.664062 142.710938 C 287.585938 144.347656 287.464844 145.984375 287.304688 147.617188 C 287.140625 149.253906 286.941406 150.882812 286.699219 152.503906 C 286.460938 154.128906 286.179688 155.746094 285.859375 157.355469 C 285.539062 158.964844 285.179688 160.566406 284.78125 162.15625 C 284.382812 163.75 283.945312 165.332031 283.46875 166.902344 C 282.992188 168.472656 282.476562 170.03125 281.921875 171.574219 C 281.371094 173.121094 280.78125 174.652344 280.152344 176.167969 C 279.523438 177.683594 278.859375 179.183594 278.15625 180.667969 C 277.457031 182.152344 276.71875 183.617188 275.945312 185.066406 C 275.171875 186.511719 274.363281 187.941406 273.515625 189.347656 C 272.671875 190.753906 271.796875 192.140625 270.882812 193.507812 C 269.972656 194.871094 269.027344 196.210938 268.050781 197.53125 C 267.070312 198.847656 266.0625 200.144531 265.019531 201.410156 C 263.980469 202.679688 262.910156 203.921875 261.804688 205.140625 C 260.703125 206.355469 259.574219 207.542969 258.410156 208.703125 C 257.25 209.863281 256.0625 210.996094 254.847656 212.097656 C 253.628906 213.199219 252.386719 214.273438 251.121094 215.3125 C 249.851562 216.355469 248.558594 217.363281 247.238281 218.34375 C 245.921875 219.320312 244.578125 220.265625 243.214844 221.175781 C 241.851562 222.089844 240.464844 222.964844 239.054688 223.808594 C 237.648438 224.652344 236.21875 225.460938 234.773438 226.234375 C 233.324219 227.011719 231.859375 227.746094 230.375 228.449219 C 228.890625 229.152344 227.390625 229.816406 225.875 230.445312 C 224.359375 231.070312 222.828125 231.664062 221.28125 232.214844 C 219.738281 232.769531 218.179688 233.285156 216.609375 233.757812 C 215.039062 234.234375 213.457031 234.671875 211.863281 235.074219 C 210.273438 235.472656 208.671875 235.832031 207.0625 236.152344 C 205.453125 236.472656 203.835938 236.75 202.210938 236.992188 C 200.589844 237.234375 198.960938 237.433594 197.328125 237.59375 C 195.695312 237.757812 194.058594 237.875 192.417969 237.957031 C 190.777344 238.039062 189.136719 238.078125 187.496094 238.078125 C 185.855469 238.078125 184.214844 238.039062 182.574219 237.957031 C 180.9375 237.875 179.300781 237.757812 177.667969 237.59375 C 176.035156 237.433594 174.40625 237.234375 172.78125 236.992188 C 171.15625 236.75 169.542969 236.472656 167.929688 236.152344 C 166.320312 235.832031 164.71875 235.472656 163.128906 235.074219 C 161.535156 234.671875 159.953125 234.234375 158.382812 233.757812 C 156.8125 233.285156 155.253906 232.769531 153.710938 232.214844 C 152.164062 231.664062 150.632812 231.070312 149.117188 230.445312 C 147.601562 229.816406 146.101562 229.152344 144.617188 228.449219 C 143.132812 227.746094 141.667969 227.011719 140.222656 226.234375 C 138.773438 225.460938 137.34375 224.652344 135.9375 223.808594 C 134.53125 222.964844 133.144531 222.089844 131.777344 221.175781 C 130.414062 220.265625 129.074219 219.320312 127.753906 218.34375 C 126.4375 217.363281 125.144531 216.355469 123.875 215.3125 C 122.605469 214.273438 121.363281 213.199219 120.148438 212.097656 C 118.929688 210.996094 117.742188 209.863281 116.582031 208.703125 C 115.421875 207.542969 114.289062 206.355469 113.1875 205.140625 C 112.085938 203.921875 111.011719 202.679688 109.972656 201.410156 C 108.929688 200.144531 107.921875 198.847656 106.945312 197.53125 C 105.964844 196.210938 105.019531 194.871094 104.109375 193.507812 C 103.199219 192.140625 102.320312 190.753906 101.476562 189.347656 C 100.632812 187.941406 99.824219 186.511719 99.050781 185.066406 C 98.277344 183.617188 97.539062 182.152344 96.835938 180.667969 C 96.136719 179.183594 95.46875 177.683594 94.839844 176.167969 C 94.214844 174.652344 93.625 173.121094 93.070312 171.574219 C 92.515625 170.03125 92.003906 168.472656 91.527344 166.902344 C 91.050781 165.332031 90.613281 163.75 90.214844 162.15625 C 89.816406 160.566406 89.453125 158.964844 89.132812 157.355469 C 88.816406 155.746094 88.535156 154.128906 88.292969 152.503906 C 88.050781 150.882812 87.851562 149.253906 87.691406 147.617188 C 87.53125 145.984375 87.410156 144.347656 87.328125 142.710938 C 87.246094 141.070312 87.207031 139.429688 87.207031 137.789062 C 87.207031 136.148438 87.246094 134.507812 87.328125 132.867188 C 87.410156 131.230469 87.53125 129.59375 87.691406 127.960938 C 87.851562 126.324219 88.050781 124.695312 88.292969 123.074219 C 88.535156 121.449219 88.816406 119.832031 89.132812 118.222656 C 89.453125 116.613281 89.816406 115.011719 90.214844 113.421875 C 90.613281 111.828125 91.050781 110.246094 91.527344 108.675781 C 92.003906 107.105469 92.515625 105.546875 93.070312 104.003906 C 93.625 102.457031 94.214844 100.925781 94.839844 99.410156 C 95.46875 97.894531 96.136719 96.394531 96.835938 94.910156 C 97.539062 93.425781 98.277344 91.960938 99.050781 90.511719 C 99.824219 89.066406 100.632812 87.636719 101.476562 86.230469 C 102.320312 84.824219 103.199219 83.4375 104.109375 82.070312 C 105.019531 80.707031 105.964844 79.367188 106.945312 78.046875 C 107.921875 76.730469 108.929688 75.433594 109.972656 74.167969 C 111.011719 72.898438 112.085938 71.65625 113.1875 70.4375 C 114.289062 69.222656 115.421875 68.035156 116.582031 66.875 C 117.742188 65.714844 118.929688 64.582031 120.148438 63.480469 C 121.363281 62.378906 122.605469 61.304688 123.875 60.265625 C 125.144531 59.222656 126.4375 58.214844 127.753906 57.234375 C 129.074219 56.257812 130.414062 55.3125 131.777344 54.402344 C 133.144531 53.488281 134.53125 52.613281 135.9375 51.769531 C 137.34375 50.925781 138.773438 50.117188 140.222656 49.34375 C 141.667969 48.566406 143.132812 47.832031 144.617188 47.128906 C 146.101562 46.425781 147.601562 45.761719 149.117188 45.132812 C 150.632812 44.507812 152.164062 43.914062 153.710938 43.363281 C 155.253906 42.808594 156.8125 42.292969 158.382812 41.820312 C 159.953125 41.34375 161.535156 40.90625 163.128906 40.503906 C 164.71875 40.105469 166.320312 39.746094 167.929688 39.425781 C 169.542969 39.105469 171.15625 38.828125 172.78125 38.585938 C 174.40625 38.34375 176.035156 38.144531 177.667969 37.984375 C 179.300781 37.820312 180.9375 37.703125 182.574219 37.621094 C 184.214844 37.539062 185.855469 37.5 187.496094 37.5 C 189.136719 37.5 190.777344 37.539062 192.417969 37.621094 C 194.058594 37.703125 195.695312 37.820312 197.328125 37.984375 C 198.960938 38.144531 200.589844 38.34375 202.210938 38.585938 C 203.835938 38.828125 205.453125 39.105469 207.0625 39.425781 C 208.671875 39.746094 210.273438 40.105469 211.863281 40.503906 C 213.457031 40.90625 215.039062 41.34375 216.609375 41.820312 C 218.179688 42.292969 219.738281 42.808594 221.28125 43.363281 C 222.828125 43.914062 224.359375 44.507812 225.875 45.132812 C 227.390625 45.761719 228.890625 46.425781 230.375 47.128906 C 231.859375 47.832031 233.324219 48.566406 234.773438 49.34375 C 236.21875 50.117188 237.648438 50.925781 239.054688 51.769531 C 240.464844 52.613281 241.851562 53.488281 243.214844 54.402344 C 244.578125 55.3125 245.921875 56.257812 247.238281 57.234375 C 248.558594 58.214844 249.851562 59.222656 251.121094 60.265625 C 252.386719 61.304688 253.628906 62.378906 254.847656 63.480469 C 256.0625 64.582031 257.25 65.714844 258.410156 66.875 C 259.574219 68.035156 260.703125 69.222656 261.804688 70.4375 C 262.910156 71.65625 263.980469 72.898438 265.019531 74.167969 C 266.0625 75.433594 267.070312 76.730469 268.050781 78.046875 C 269.027344 79.363281 269.972656 80.707031 270.882812 82.070312 C 271.796875 83.4375 272.671875 84.824219 273.515625 86.230469 C 274.363281 87.636719 275.171875 89.066406 275.945312 90.511719 C 276.71875 91.960938 277.457031 93.425781 278.15625 94.910156 C 278.859375 96.394531 279.523438 97.894531 280.152344 99.410156 C 280.78125 100.925781 281.371094 102.457031 281.921875 104.003906 C 282.476562 105.546875 282.992188 107.105469 283.46875 108.675781 C 283.945312 110.246094 284.382812 111.828125 284.78125 113.421875 C 285.179688 115.011719 285.539062 116.613281 285.859375 118.222656 C 286.179688 119.832031 286.460938 121.449219 286.699219 123.074219 C 286.941406 124.695312 287.140625 126.324219 287.304688 127.960938 C 287.464844 129.59375 287.585938 131.230469 287.664062 132.867188 C 287.746094 134.507812 287.785156 136.148438 287.785156 137.789062 Z M 287.785156 137.789062 " fill-opacity="1" fill-rule="nonzero"/></g><path fill="#000000" d="M 256.195312 148.621094 C 254.1875 148.621094 252.683594 146.914062 252.683594 144.910156 L 252.683594 131.671875 C 252.683594 129.664062 254.1875 127.960938 256.195312 127.960938 C 258.199219 127.960938 259.703125 129.664062 259.703125 131.671875 L 259.703125 145.011719 C 259.703125 147.015625 258.199219 148.621094 256.195312 148.621094 Z M 256.195312 148.621094 " fill-opacity="1" fill-rule="nonzero"/><path fill="#000000" d="M 127.824219 148.621094 C 125.820312 148.621094 124.316406 146.914062 124.316406 144.910156 L 124.316406 131.671875 C 124.316406 129.664062 125.820312 127.960938 127.824219 127.960938 C 129.832031 127.960938 131.335938 129.664062 131.335938 131.671875 L 131.335938 145.011719 C 131.335938 147.015625 129.832031 148.621094 127.824219 148.621094 Z M 127.824219 148.621094 " fill-opacity="1" fill-rule="nonzero"/><path fill="#000000" d="M 155.90625 190.84375 C 153.800781 190.84375 152.394531 188.835938 152.394531 186.429688 L 152.394531 90.152344 C 152.394531 87.746094 153.800781 85.738281 155.90625 85.738281 C 158.011719 85.738281 159.414062 87.746094 159.414062 90.152344 L 159.414062 186.53125 C 159.414062 188.9375 157.910156 190.84375 155.90625 190.84375 Z M 155.90625 190.84375 " fill-opacity="1" fill-rule="nonzero"/><path fill="#000000" d="M 140.863281 167.273438 C 138.757812 167.273438 137.351562 165.570312 137.351562 163.5625 L 137.351562 113.117188 C 137.351562 111.011719 138.757812 109.40625 140.863281 109.40625 C 142.96875 109.40625 144.371094 111.113281 144.371094 113.117188 L 144.371094 163.5625 C 144.371094 165.570312 142.867188 167.273438 140.863281 167.273438 Z M 140.863281 167.273438 " fill-opacity="1" fill-rule="nonzero"/><path fill="#000000" d="M 170.449219 167.273438 C 168.339844 167.273438 166.4375 165.570312 166.4375 163.5625 L 166.4375 113.117188 C 166.4375 111.011719 168.339844 109.40625 170.449219 109.40625 C 172.554688 109.40625 174.460938 111.113281 174.460938 113.117188 L 174.460938 163.5625 C 174.460938 165.570312 172.453125 167.273438 170.449219 167.273438 Z M 170.449219 167.273438 " fill-opacity="1" fill-rule="nonzero"/><path fill="#000000" d="M 198.527344 167.273438 C 196.421875 167.273438 194.515625 165.570312 194.515625 163.5625 L 194.515625 113.117188 C 194.515625 111.011719 196.421875 109.40625 198.527344 109.40625 C 200.632812 109.40625 202.539062 111.113281 202.539062 113.117188 L 202.539062 163.5625 C 202.539062 165.570312 200.535156 167.273438 198.527344 167.273438 Z M 198.527344 167.273438 " fill-opacity="1" fill-rule="nonzero"/><path fill="#000000" d="M 228.113281 167.273438 C 226.007812 167.273438 224.605469 165.570312 224.605469 163.5625 L 224.605469 113.117188 C 224.605469 111.011719 226.007812 109.40625 228.113281 109.40625 C 230.21875 109.40625 231.625 111.113281 231.625 113.117188 L 231.625 163.5625 C 231.625 165.570312 230.121094 167.273438 228.113281 167.273438 Z M 228.113281 167.273438 " fill-opacity="1" fill-rule="nonzero"/><path fill="#000000" d="M 213.570312 154.136719 C 211.464844 154.136719 209.558594 152.429688 209.558594 150.425781 L 209.558594 126.15625 C 209.558594 124.050781 211.464844 122.445312 213.570312 122.445312 C 215.679688 122.445312 217.582031 124.148438 217.582031 126.15625 L 217.582031 150.425781 C 217.582031 152.53125 215.578125 154.136719 213.570312 154.136719 Z M 213.570312 154.136719 " fill-opacity="1" fill-rule="nonzero"/><path fill="#000000" d="M 243.15625 154.035156 C 241.050781 154.035156 239.648438 152.332031 239.648438 150.324219 L 239.648438 125.953125 C 239.648438 123.847656 241.050781 122.246094 243.15625 122.246094 C 245.261719 122.246094 246.667969 123.949219 246.667969 125.953125 L 246.667969 150.226562 C 246.667969 152.332031 245.164062 154.035156 243.15625 154.035156 Z M 243.15625 154.035156 " fill-opacity="1" fill-rule="nonzero"/><path fill="#000000" d="M 184.988281 154.136719 C 182.882812 154.136719 181.480469 152.429688 181.480469 150.425781 L 181.480469 126.15625 C 181.480469 124.050781 182.882812 122.445312 184.988281 122.445312 C 187.09375 122.445312 188.5 124.148438 188.5 126.15625 L 188.5 150.425781 C 188.5 152.53125 186.996094 154.136719 184.988281 154.136719 Z M 184.988281 154.136719 " fill-opacity="1" fill-rule="nonzero"/><g fill="#ffffff" fill-opacity="1"><g transform="translate(12.87891, 316.394305)"><g><path d="M 37.453125 -10.671875 C 37.453125 -8.472656 36.890625 -6.53125 35.765625 -4.84375 C 34.648438 -3.15625 32.882812 -1.832031 30.46875 -0.875 C 28.050781 0.0703125 24.84375 0.546875 20.84375 0.546875 C 16.1875 0.546875 12.453125 -0.0664062 9.640625 -1.296875 C 6.835938 -2.523438 4.804688 -4.289062 3.546875 -6.59375 C 2.285156 -8.90625 1.65625 -11.691406 1.65625 -14.953125 L 10.453125 -14.953125 C 10.453125 -11.984375 11.265625 -9.941406 12.890625 -8.828125 C 14.523438 -7.710938 17.269531 -7.15625 21.125 -7.15625 C 23.945312 -7.15625 25.90625 -7.460938 27 -8.078125 C 28.101562 -8.703125 28.65625 -9.53125 28.65625 -10.5625 C 28.65625 -11.507812 28.175781 -12.304688 27.21875 -12.953125 C 26.269531 -13.597656 25.015625 -14.203125 23.453125 -14.765625 C 21.898438 -15.335938 20.171875 -15.9375 18.265625 -16.5625 C 16.210938 -17.25 14.285156 -17.929688 12.484375 -18.609375 C 10.691406 -19.296875 9.113281 -20.097656 7.75 -21.015625 C 6.394531 -21.929688 5.332031 -23.03125 4.5625 -24.3125 C 3.789062 -25.59375 3.40625 -27.1875 3.40625 -29.09375 C 3.40625 -32.394531 4.695312 -34.925781 7.28125 -36.6875 C 9.875 -38.445312 13.660156 -39.328125 18.640625 -39.328125 C 22.597656 -39.328125 25.851562 -38.710938 28.40625 -37.484375 C 30.957031 -36.253906 32.835938 -34.601562 34.046875 -32.53125 C 35.253906 -30.457031 35.859375 -28.140625 35.859375 -25.578125 L 27.0625 -25.578125 C 27.0625 -27.148438 26.691406 -28.375 25.953125 -29.25 C 25.222656 -30.132812 24.222656 -30.75 22.953125 -31.09375 C 21.691406 -31.445312 20.253906 -31.625 18.640625 -31.625 C 16.660156 -31.625 15.09375 -31.394531 13.9375 -30.9375 C 12.78125 -30.476562 12.203125 -29.753906 12.203125 -28.765625 C 12.203125 -28.179688 12.367188 -27.6875 12.703125 -27.28125 C 13.035156 -26.875 13.710938 -26.441406 14.734375 -25.984375 C 15.765625 -25.523438 17.304688 -24.945312 19.359375 -24.25 C 20.785156 -23.78125 22.316406 -23.257812 23.953125 -22.6875 C 25.585938 -22.113281 27.203125 -21.46875 28.796875 -20.75 C 30.390625 -20.039062 31.835938 -19.207031 33.140625 -18.25 C 34.441406 -17.300781 35.484375 -16.203125 36.265625 -14.953125 C 37.054688 -13.710938 37.453125 -12.285156 37.453125 -10.671875 Z M 37.453125 -10.671875 "/></g></g></g><g fill="#ffffff" fill-opacity="1"><g transform="translate(51.981069, 316.394305)"><g><path d="M 17.265625 -7.15625 C 18.878906 -7.15625 20.269531 -7.472656 21.4375 -8.109375 C 22.613281 -8.753906 23.53125 -9.828125 24.1875 -11.328125 C 24.851562 -12.828125 25.1875 -14.878906 25.1875 -17.484375 L 25.1875 -27.78125 L 33.984375 -27.78125 L 33.984375 0 L 25.1875 0 L 25.1875 -3.359375 L 26.84375 -8.3125 L 24.640625 -8.3125 C 24.085938 -5.851562 22.941406 -3.757812 21.203125 -2.03125 C 19.460938 -0.3125 17.109375 0.546875 14.140625 0.546875 C 10.578125 0.546875 7.785156 -0.597656 5.765625 -2.890625 C 3.753906 -5.179688 2.75 -8.472656 2.75 -12.765625 L 2.75 -27.78125 L 11.546875 -27.78125 L 11.546875 -14.140625 C 11.546875 -11.609375 11.96875 -9.8125 12.8125 -8.75 C 13.65625 -7.6875 15.140625 -7.15625 17.265625 -7.15625 Z M 17.265625 -7.15625 "/></g></g></g><g fill="#ffffff" fill-opacity="1"><g transform="translate(88.718409, 316.394305)"><g><path d="M 3.296875 10.453125 L 3.296875 -27.78125 L 12.09375 -27.78125 L 12.09375 -26.0625 L 10.453125 -21.125 L 12.65625 -21.125 C 13.125 -22.363281 13.769531 -23.523438 14.59375 -24.609375 C 15.425781 -25.691406 16.566406 -26.582031 18.015625 -27.28125 C 19.460938 -27.976562 21.320312 -28.328125 23.59375 -28.328125 C 26.269531 -28.328125 28.492188 -27.664062 30.265625 -26.34375 C 32.046875 -25.019531 33.382812 -23.265625 34.28125 -21.078125 C 35.1875 -18.898438 35.640625 -16.492188 35.640625 -13.859375 C 35.640625 -11.253906 35.1875 -8.851562 34.28125 -6.65625 C 33.382812 -4.457031 32.046875 -2.707031 30.265625 -1.40625 C 28.492188 -0.101562 26.269531 0.546875 23.59375 0.546875 C 21.320312 0.546875 19.460938 0.195312 18.015625 -0.5 C 16.566406 -1.195312 15.425781 -2.09375 14.59375 -3.1875 C 13.769531 -4.289062 13.125 -5.445312 12.65625 -6.65625 L 10.453125 -6.65625 L 12.09375 -1.703125 L 12.09375 10.453125 Z M 12.09375 -13.859375 C 12.09375 -11.515625 12.734375 -9.8125 14.015625 -8.75 C 15.304688 -7.6875 17.125 -7.15625 19.46875 -7.15625 C 21.851562 -7.15625 23.675781 -7.6875 24.9375 -8.75 C 26.207031 -9.8125 26.84375 -11.515625 26.84375 -13.859375 C 26.84375 -16.242188 26.207031 -17.96875 24.9375 -19.03125 C 23.675781 -20.09375 21.851562 -20.625 19.46875 -20.625 C 17.125 -20.625 15.304688 -20.09375 14.015625 -19.03125 C 12.734375 -17.96875 12.09375 -16.242188 12.09375 -13.859375 Z M 12.09375 -13.859375 "/></g></g></g><g fill="#ffffff" fill-opacity="1"><g transform="translate(126.555664, 316.394305)"><g><path d="M 2.203125 -14.25 C 2.203125 -17.175781 2.820312 -19.691406 4.0625 -21.796875 C 5.3125 -23.910156 7.035156 -25.523438 9.234375 -26.640625 C 11.441406 -27.765625 13.972656 -28.328125 16.828125 -28.328125 C 19.722656 -28.328125 22.269531 -27.785156 24.46875 -26.703125 C 26.675781 -25.617188 28.398438 -24.066406 29.640625 -22.046875 C 30.890625 -20.035156 31.515625 -17.617188 31.515625 -14.796875 L 31.515625 -12.046875 L 10.453125 -12.046875 C 10.453125 -10.472656 11.046875 -9.171875 12.234375 -8.140625 C 13.429688 -7.109375 15.273438 -6.59375 17.765625 -6.59375 C 19.304688 -6.59375 20.613281 -6.867188 21.6875 -7.421875 C 22.769531 -7.972656 23.441406 -8.765625 23.703125 -9.796875 L 32.5 -9.796875 C 32.351562 -8.804688 31.957031 -7.710938 31.3125 -6.515625 C 30.675781 -5.328125 29.753906 -4.191406 28.546875 -3.109375 C 27.335938 -2.023438 25.84375 -1.144531 24.0625 -0.46875 C 22.28125 0.207031 20.179688 0.546875 17.765625 0.546875 C 14.210938 0.546875 11.289062 -0.140625 9 -1.515625 C 6.707031 -2.890625 5 -4.703125 3.875 -6.953125 C 2.757812 -9.210938 2.203125 -11.644531 2.203125 -14.25 Z M 10.453125 -17 L 23.265625 -17 C 23.265625 -18.0625 22.804688 -19.019531 21.890625 -19.875 C 20.972656 -20.738281 19.285156 -21.171875 16.828125 -21.171875 C 14.367188 -21.171875 12.691406 -20.738281 11.796875 -19.875 C 10.898438 -19.019531 10.453125 -18.0625 10.453125 -17 Z M 10.453125 -17 "/></g></g></g><g fill="#ffffff" fill-opacity="1"><g transform="translate(161.258143, 316.394305)"><g><path d="M 12.09375 0 L 3.296875 0 L 3.296875 -23.59375 C 3.296875 -25.09375 3.707031 -26.242188 4.53125 -27.046875 C 5.363281 -27.859375 6.53125 -28.25 8.03125 -28.21875 L 26.234375 -27.78125 L 26.234375 -20.078125 L 12.09375 -20.40625 Z M 12.09375 0 "/></g></g></g><g fill="#ffffff" fill-opacity="1"><g transform="translate(188.041195, 316.394305)"><g><path d="M 37.453125 -10.671875 C 37.453125 -8.472656 36.890625 -6.53125 35.765625 -4.84375 C 34.648438 -3.15625 32.882812 -1.832031 30.46875 -0.875 C 28.050781 0.0703125 24.84375 0.546875 20.84375 0.546875 C 16.1875 0.546875 12.453125 -0.0664062 9.640625 -1.296875 C 6.835938 -2.523438 4.804688 -4.289062 3.546875 -6.59375 C 2.285156 -8.90625 1.65625 -11.691406 1.65625 -14.953125 L 10.453125 -14.953125 C 10.453125 -11.984375 11.265625 -9.941406 12.890625 -8.828125 C 14.523438 -7.710938 17.269531 -7.15625 21.125 -7.15625 C 23.945312 -7.15625 25.90625 -7.460938 27 -8.078125 C 28.101562 -8.703125 28.65625 -9.53125 28.65625 -10.5625 C 28.65625 -11.507812 28.175781 -12.304688 27.21875 -12.953125 C 26.269531 -13.597656 25.015625 -14.203125 23.453125 -14.765625 C 21.898438 -15.335938 20.171875 -15.9375 18.265625 -16.5625 C 16.210938 -17.25 14.285156 -17.929688 12.484375 -18.609375 C 10.691406 -19.296875 9.113281 -20.097656 7.75 -21.015625 C 6.394531 -21.929688 5.332031 -23.03125 4.5625 -24.3125 C 3.789062 -25.59375 3.40625 -27.1875 3.40625 -29.09375 C 3.40625 -32.394531 4.695312 -34.925781 7.28125 -36.6875 C 9.875 -38.445312 13.660156 -39.328125 18.640625 -39.328125 C 22.597656 -39.328125 25.851562 -38.710938 28.40625 -37.484375 C 30.957031 -36.253906 32.835938 -34.601562 34.046875 -32.53125 C 35.253906 -30.457031 35.859375 -28.140625 35.859375 -25.578125 L 27.0625 -25.578125 C 27.0625 -27.148438 26.691406 -28.375 25.953125 -29.25 C 25.222656 -30.132812 24.222656 -30.75 22.953125 -31.09375 C 21.691406 -31.445312 20.253906 -31.625 18.640625 -31.625 C 16.660156 -31.625 15.09375 -31.394531 13.9375 -30.9375 C 12.78125 -30.476562 12.203125 -29.753906 12.203125 -28.765625 C 12.203125 -28.179688 12.367188 -27.6875 12.703125 -27.28125 C 13.035156 -26.875 13.710938 -26.441406 14.734375 -25.984375 C 15.765625 -25.523438 17.304688 -24.945312 19.359375 -24.25 C 20.785156 -23.78125 22.316406 -23.257812 23.953125 -22.6875 C 25.585938 -22.113281 27.203125 -21.46875 28.796875 -20.75 C 30.390625 -20.039062 31.835938 -19.207031 33.140625 -18.25 C 34.441406 -17.300781 35.484375 -16.203125 36.265625 -14.953125 C 37.054688 -13.710938 37.453125 -12.285156 37.453125 -10.671875 Z M 37.453125 -10.671875 "/></g></g></g><g fill="#ffffff" fill-opacity="1"><g transform="translate(227.143354, 316.394305)"><g><path d="M 2.203125 -13.921875 C 2.203125 -17.140625 2.894531 -19.8125 4.28125 -21.9375 C 5.675781 -24.070312 7.566406 -25.671875 9.953125 -26.734375 C 12.335938 -27.796875 14.976562 -28.328125 17.875 -28.328125 C 20.769531 -28.328125 23.398438 -27.796875 25.765625 -26.734375 C 28.128906 -25.671875 30.007812 -24.070312 31.40625 -21.9375 C 32.800781 -19.8125 33.5 -17.140625 33.5 -13.921875 C 33.5 -10.691406 32.800781 -8.003906 31.40625 -5.859375 C 30.007812 -3.710938 28.128906 -2.109375 25.765625 -1.046875 C 23.398438 0.015625 20.769531 0.546875 17.875 0.546875 C 14.976562 0.546875 12.335938 0.015625 9.953125 -1.046875 C 7.566406 -2.109375 5.675781 -3.710938 4.28125 -5.859375 C 2.894531 -8.003906 2.203125 -10.691406 2.203125 -13.921875 Z M 11 -13.921875 C 11 -11.566406 11.617188 -9.847656 12.859375 -8.765625 C 14.109375 -7.691406 15.78125 -7.15625 17.875 -7.15625 C 19.925781 -7.15625 21.570312 -7.691406 22.8125 -8.765625 C 24.0625 -9.847656 24.6875 -11.566406 24.6875 -13.921875 C 24.6875 -16.222656 24.0625 -17.914062 22.8125 -19 C 21.570312 -20.082031 19.925781 -20.625 17.875 -20.625 C 15.78125 -20.625 14.109375 -20.082031 12.859375 -19 C 11.617188 -17.914062 11 -16.222656 11 -13.921875 Z M 11 -13.921875 "/></g></g></g><g fill="#ffffff" fill-opacity="1"><g transform="translate(262.835757, 316.394305)"><g><path d="M 20.015625 -20.625 C 18.441406 -20.625 17.054688 -20.300781 15.859375 -19.65625 C 14.671875 -19.019531 13.742188 -17.945312 13.078125 -16.4375 C 12.421875 -14.9375 12.09375 -12.882812 12.09375 -10.28125 L 12.09375 0 L 3.296875 0 L 3.296875 -27.78125 L 12.09375 -27.78125 L 12.09375 -24.421875 L 10.453125 -19.46875 L 12.65625 -19.46875 C 13.195312 -21.957031 14.335938 -24.054688 16.078125 -25.765625 C 17.828125 -27.472656 20.1875 -28.328125 23.15625 -28.328125 C 26.707031 -28.328125 29.492188 -27.179688 31.515625 -24.890625 C 33.535156 -22.597656 34.546875 -19.304688 34.546875 -15.015625 L 34.546875 0 L 25.734375 0 L 25.734375 -13.640625 C 25.734375 -16.171875 25.3125 -17.96875 24.46875 -19.03125 C 23.625 -20.09375 22.140625 -20.625 20.015625 -20.625 Z M 20.015625 -20.625 "/></g></g></g><g fill="#ffffff" fill-opacity="1"><g transform="translate(300.123055, 316.394305)"><g><path d="M 13.578125 -30.53125 C 11.972656 -30.53125 10.710938 -30.90625 9.796875 -31.65625 C 8.878906 -32.40625 8.421875 -33.492188 8.421875 -34.921875 C 8.421875 -36.316406 8.878906 -37.398438 9.796875 -38.171875 C 10.710938 -38.941406 11.972656 -39.328125 13.578125 -39.328125 C 15.191406 -39.328125 16.472656 -38.941406 17.421875 -38.171875 C 18.378906 -37.398438 18.859375 -36.316406 18.859375 -34.921875 C 18.859375 -33.492188 18.378906 -32.40625 17.421875 -31.65625 C 16.472656 -30.90625 15.191406 -30.53125 13.578125 -30.53125 Z M 26.40625 0 L 2.203125 0 L 2.203125 -7.703125 L 10.0625 -7.703125 L 10.0625 -20.40625 L 3.296875 -20.078125 L 3.296875 -27.78125 L 13.75 -28.328125 C 15.289062 -28.398438 16.472656 -28.03125 17.296875 -27.21875 C 18.117188 -26.414062 18.53125 -25.242188 18.53125 -23.703125 L 18.53125 -7.703125 L 26.40625 -7.703125 Z M 26.40625 0 "/></g></g></g><g fill="#ffffff" fill-opacity="1"><g transform="translate(327.621077, 316.394305)"><g><path d="M 2.203125 -13.921875 C 2.203125 -16.992188 2.851562 -19.601562 4.15625 -21.75 C 5.457031 -23.894531 7.242188 -25.523438 9.515625 -26.640625 C 11.785156 -27.765625 14.40625 -28.328125 17.375 -28.328125 C 19.90625 -28.328125 22.28125 -27.875 24.5 -26.96875 C 26.71875 -26.070312 28.539062 -24.722656 29.96875 -22.921875 C 31.40625 -21.128906 32.175781 -18.914062 32.28125 -16.28125 L 23.484375 -16.28125 C 23.335938 -17.53125 22.722656 -18.566406 21.640625 -19.390625 C 20.554688 -20.210938 19.132812 -20.625 17.375 -20.625 C 15.289062 -20.625 13.707031 -20.035156 12.625 -18.859375 C 11.539062 -17.691406 11 -16.046875 11 -13.921875 C 11 -11.785156 11.539062 -10.125 12.625 -8.9375 C 13.707031 -7.75 15.289062 -7.15625 17.375 -7.15625 C 19.132812 -7.15625 20.554688 -7.566406 21.640625 -8.390625 C 22.722656 -9.210938 23.335938 -10.25 23.484375 -11.5 L 32.28125 -11.5 C 32.175781 -8.851562 31.40625 -6.640625 29.96875 -4.859375 C 28.539062 -3.085938 26.71875 -1.742188 24.5 -0.828125 C 22.28125 0.0859375 19.90625 0.546875 17.375 0.546875 C 14.40625 0.546875 11.785156 -0.0078125 9.515625 -1.125 C 7.242188 -2.25 5.457031 -3.890625 4.15625 -6.046875 C 2.851562 -8.210938 2.203125 -10.835938 2.203125 -13.921875 Z M 2.203125 -13.921875 "/></g></g></g></svg>