<svg xmlns="http://www.w3.org/2000/svg" xmlns:xlink="http://www.w3.org/1999/xlink" width="500" zoomAndPan="magnify" viewBox="0 0 375 112.499997" height="150" preserveAspectRatio="xMidYMid meet" version="1.0"><defs><g/><clipPath id="e66bc1695b"><path d="M 7.851562 10.453125 L 92.972656 10.453125 L 92.972656 95.574219 L 7.851562 95.574219 Z M 7.851562 10.453125 " clip-rule="nonzero"/></clipPath></defs><g fill="#ffffff" fill-opacity="1"><g transform="translate(98.770478, 66.071486)"><g><path d="M 27.796875 -7.921875 C 27.796875 -6.285156 27.378906 -4.84375 26.546875 -3.59375 C 25.710938 -2.34375 24.398438 -1.363281 22.609375 -0.65625 C 20.816406 0.0507812 18.4375 0.40625 15.46875 0.40625 C 12.007812 0.40625 9.238281 -0.046875 7.15625 -0.953125 C 5.082031 -1.867188 3.570312 -3.179688 2.625 -4.890625 C 1.6875 -6.609375 1.21875 -8.675781 1.21875 -11.09375 L 7.75 -11.09375 C 7.75 -8.894531 8.351562 -7.378906 9.5625 -6.546875 C 10.78125 -5.722656 12.816406 -5.3125 15.671875 -5.3125 C 17.765625 -5.3125 19.21875 -5.539062 20.03125 -6 C 20.851562 -6.457031 21.265625 -7.070312 21.265625 -7.84375 C 21.265625 -8.539062 20.910156 -9.128906 20.203125 -9.609375 C 19.492188 -10.085938 18.5625 -10.535156 17.40625 -10.953125 C 16.25 -11.378906 14.960938 -11.820312 13.546875 -12.28125 C 12.023438 -12.800781 10.597656 -13.3125 9.265625 -13.8125 C 7.929688 -14.3125 6.757812 -14.898438 5.75 -15.578125 C 4.75 -16.265625 3.960938 -17.082031 3.390625 -18.03125 C 2.816406 -18.988281 2.53125 -20.175781 2.53125 -21.59375 C 2.53125 -24.039062 3.488281 -25.914062 5.40625 -27.21875 C 7.320312 -28.53125 10.128906 -29.1875 13.828125 -29.1875 C 16.773438 -29.1875 19.191406 -28.726562 21.078125 -27.8125 C 22.972656 -26.90625 24.367188 -25.679688 25.265625 -24.140625 C 26.160156 -22.597656 26.609375 -20.878906 26.609375 -18.984375 L 20.078125 -18.984375 C 20.078125 -20.148438 19.804688 -21.054688 19.265625 -21.703125 C 18.722656 -22.359375 17.976562 -22.816406 17.03125 -23.078125 C 16.09375 -23.335938 15.023438 -23.46875 13.828125 -23.46875 C 12.359375 -23.46875 11.195312 -23.296875 10.34375 -22.953125 C 9.488281 -22.617188 9.0625 -22.082031 9.0625 -21.34375 C 9.0625 -20.90625 9.179688 -20.535156 9.421875 -20.234375 C 9.671875 -19.941406 10.175781 -19.625 10.9375 -19.28125 C 11.695312 -18.945312 12.835938 -18.519531 14.359375 -18 C 15.421875 -17.644531 16.554688 -17.253906 17.765625 -16.828125 C 18.984375 -16.410156 20.179688 -15.9375 21.359375 -15.40625 C 22.546875 -14.875 23.617188 -14.253906 24.578125 -13.546875 C 25.546875 -12.835938 26.320312 -12.019531 26.90625 -11.09375 C 27.5 -10.175781 27.796875 -9.117188 27.796875 -7.921875 Z M 27.796875 -7.921875 "/></g></g></g><g fill="#ffffff" fill-opacity="1"><g transform="translate(127.785745, 66.071486)"><g><path d="M 12.8125 -5.3125 C 14.007812 -5.3125 15.039062 -5.546875 15.90625 -6.015625 C 16.78125 -6.492188 17.460938 -7.289062 17.953125 -8.40625 C 18.441406 -9.519531 18.6875 -11.046875 18.6875 -12.984375 L 18.6875 -20.609375 L 25.21875 -20.609375 L 25.21875 0 L 18.6875 0 L 18.6875 -2.484375 L 19.921875 -6.15625 L 18.28125 -6.15625 C 17.875 -4.332031 17.023438 -2.78125 15.734375 -1.5 C 14.441406 -0.226562 12.691406 0.40625 10.484375 0.40625 C 7.847656 0.40625 5.78125 -0.441406 4.28125 -2.140625 C 2.789062 -3.835938 2.046875 -6.28125 2.046875 -9.46875 L 2.046875 -20.609375 L 8.578125 -20.609375 L 8.578125 -10.484375 C 8.578125 -8.609375 8.890625 -7.273438 9.515625 -6.484375 C 10.140625 -5.703125 11.238281 -5.3125 12.8125 -5.3125 Z M 12.8125 -5.3125 "/></g></g></g><g fill="#ffffff" fill-opacity="1"><g transform="translate(155.04622, 66.071486)"><g><path d="M 2.453125 7.75 L 2.453125 -20.609375 L 8.984375 -20.609375 L 8.984375 -19.34375 L 7.75 -15.671875 L 9.390625 -15.671875 C 9.742188 -16.597656 10.222656 -17.460938 10.828125 -18.265625 C 11.441406 -19.066406 12.285156 -19.722656 13.359375 -20.234375 C 14.441406 -20.753906 15.828125 -21.015625 17.515625 -21.015625 C 19.492188 -21.015625 21.144531 -20.523438 22.46875 -19.546875 C 23.789062 -18.566406 24.785156 -17.265625 25.453125 -15.640625 C 26.117188 -14.023438 26.453125 -12.238281 26.453125 -10.28125 C 26.453125 -8.351562 26.117188 -6.570312 25.453125 -4.9375 C 24.785156 -3.300781 23.789062 -2 22.46875 -1.03125 C 21.144531 -0.0703125 19.492188 0.40625 17.515625 0.40625 C 15.828125 0.40625 14.441406 0.148438 13.359375 -0.359375 C 12.285156 -0.878906 11.441406 -1.546875 10.828125 -2.359375 C 10.222656 -3.179688 9.742188 -4.039062 9.390625 -4.9375 L 7.75 -4.9375 L 8.984375 -1.265625 L 8.984375 7.75 Z M 8.984375 -10.28125 C 8.984375 -8.539062 9.457031 -7.273438 10.40625 -6.484375 C 11.351562 -5.703125 12.703125 -5.3125 14.453125 -5.3125 C 16.210938 -5.3125 17.5625 -5.703125 18.5 -6.484375 C 19.445312 -7.273438 19.921875 -8.539062 19.921875 -10.28125 C 19.921875 -12.050781 19.445312 -13.328125 18.5 -14.109375 C 17.5625 -14.898438 16.210938 -15.296875 14.453125 -15.296875 C 12.703125 -15.296875 11.351562 -14.898438 10.40625 -14.109375 C 9.457031 -13.328125 8.984375 -12.050781 8.984375 -10.28125 Z M 8.984375 -10.28125 "/></g></g></g><g fill="#ffffff" fill-opacity="1"><g transform="translate(183.122874, 66.071486)"><g><path d="M 1.625 -10.578125 C 1.625 -12.742188 2.085938 -14.609375 3.015625 -16.171875 C 3.941406 -17.742188 5.222656 -18.941406 6.859375 -19.765625 C 8.492188 -20.597656 10.367188 -21.015625 12.484375 -21.015625 C 14.640625 -21.015625 16.53125 -20.613281 18.15625 -19.8125 C 19.789062 -19.007812 21.070312 -17.859375 22 -16.359375 C 22.925781 -14.867188 23.390625 -13.078125 23.390625 -10.984375 L 23.390625 -8.9375 L 7.75 -8.9375 C 7.75 -7.769531 8.191406 -6.800781 9.078125 -6.03125 C 9.960938 -5.269531 11.332031 -4.890625 13.1875 -4.890625 C 14.320312 -4.890625 15.289062 -5.09375 16.09375 -5.5 C 16.894531 -5.914062 17.394531 -6.503906 17.59375 -7.265625 L 24.125 -7.265625 C 24.007812 -6.523438 23.710938 -5.710938 23.234375 -4.828125 C 22.765625 -3.953125 22.078125 -3.113281 21.171875 -2.3125 C 20.273438 -1.507812 19.164062 -0.851562 17.84375 -0.34375 C 16.53125 0.15625 14.976562 0.40625 13.1875 0.40625 C 10.539062 0.40625 8.367188 -0.101562 6.671875 -1.125 C 4.972656 -2.144531 3.707031 -3.488281 2.875 -5.15625 C 2.039062 -6.832031 1.625 -8.640625 1.625 -10.578125 Z M 7.75 -12.609375 L 17.265625 -12.609375 C 17.265625 -13.398438 16.921875 -14.113281 16.234375 -14.75 C 15.554688 -15.394531 14.304688 -15.71875 12.484375 -15.71875 C 10.660156 -15.71875 9.414062 -15.394531 8.75 -14.75 C 8.082031 -14.113281 7.75 -13.398438 7.75 -12.609375 Z M 7.75 -12.609375 "/></g></g></g><g fill="#ffffff" fill-opacity="1"><g transform="translate(208.873413, 66.071486)"><g><path d="M 8.984375 0 L 2.453125 0 L 2.453125 -17.515625 C 2.453125 -18.628906 2.753906 -19.484375 3.359375 -20.078125 C 3.972656 -20.679688 4.835938 -20.96875 5.953125 -20.9375 L 19.46875 -20.609375 L 19.46875 -14.890625 L 8.984375 -15.140625 Z M 8.984375 0 "/></g></g></g><g fill="#ffffff" fill-opacity="1"><g transform="translate(228.747444, 66.071486)"><g><path d="M 27.796875 -7.921875 C 27.796875 -6.285156 27.378906 -4.84375 26.546875 -3.59375 C 25.710938 -2.34375 24.398438 -1.363281 22.609375 -0.65625 C 20.816406 0.0507812 18.4375 0.40625 15.46875 0.40625 C 12.007812 0.40625 9.238281 -0.046875 7.15625 -0.953125 C 5.082031 -1.867188 3.570312 -3.179688 2.625 -4.890625 C 1.6875 -6.609375 1.21875 -8.675781 1.21875 -11.09375 L 7.75 -11.09375 C 7.75 -8.894531 8.351562 -7.378906 9.5625 -6.546875 C 10.78125 -5.722656 12.816406 -5.3125 15.671875 -5.3125 C 17.765625 -5.3125 19.21875 -5.539062 20.03125 -6 C 20.851562 -6.457031 21.265625 -7.070312 21.265625 -7.84375 C 21.265625 -8.539062 20.910156 -9.128906 20.203125 -9.609375 C 19.492188 -10.085938 18.5625 -10.535156 17.40625 -10.953125 C 16.25 -11.378906 14.960938 -11.820312 13.546875 -12.28125 C 12.023438 -12.800781 10.597656 -13.3125 9.265625 -13.8125 C 7.929688 -14.3125 6.757812 -14.898438 5.75 -15.578125 C 4.75 -16.265625 3.960938 -17.082031 3.390625 -18.03125 C 2.816406 -18.988281 2.53125 -20.175781 2.53125 -21.59375 C 2.53125 -24.039062 3.488281 -25.914062 5.40625 -27.21875 C 7.320312 -28.53125 10.128906 -29.1875 13.828125 -29.1875 C 16.773438 -29.1875 19.191406 -28.726562 21.078125 -27.8125 C 22.972656 -26.90625 24.367188 -25.679688 25.265625 -24.140625 C 26.160156 -22.597656 26.609375 -20.878906 26.609375 -18.984375 L 20.078125 -18.984375 C 20.078125 -20.148438 19.804688 -21.054688 19.265625 -21.703125 C 18.722656 -22.359375 17.976562 -22.816406 17.03125 -23.078125 C 16.09375 -23.335938 15.023438 -23.46875 13.828125 -23.46875 C 12.359375 -23.46875 11.195312 -23.296875 10.34375 -22.953125 C 9.488281 -22.617188 9.0625 -22.082031 9.0625 -21.34375 C 9.0625 -20.90625 9.179688 -20.535156 9.421875 -20.234375 C 9.671875 -19.941406 10.175781 -19.625 10.9375 -19.28125 C 11.695312 -18.945312 12.835938 -18.519531 14.359375 -18 C 15.421875 -17.644531 16.554688 -17.253906 17.765625 -16.828125 C 18.984375 -16.410156 20.179688 -15.9375 21.359375 -15.40625 C 22.546875 -14.875 23.617188 -14.253906 24.578125 -13.546875 C 25.546875 -12.835938 26.320312 -12.019531 26.90625 -11.09375 C 27.5 -10.175781 27.796875 -9.117188 27.796875 -7.921875 Z M 27.796875 -7.921875 "/></g></g></g><g fill="#ffffff" fill-opacity="1"><g transform="translate(257.762719, 66.071486)"><g><path d="M 1.625 -10.328125 C 1.625 -12.722656 2.140625 -14.707031 3.171875 -16.28125 C 4.210938 -17.863281 5.617188 -19.046875 7.390625 -19.828125 C 9.160156 -20.617188 11.117188 -21.015625 13.265625 -21.015625 C 15.410156 -21.015625 17.359375 -20.617188 19.109375 -19.828125 C 20.867188 -19.046875 22.265625 -17.863281 23.296875 -16.28125 C 24.335938 -14.707031 24.859375 -12.722656 24.859375 -10.328125 C 24.859375 -7.929688 24.335938 -5.9375 23.296875 -4.34375 C 22.265625 -2.75 20.867188 -1.554688 19.109375 -0.765625 C 17.359375 0.015625 15.410156 0.40625 13.265625 0.40625 C 11.117188 0.40625 9.160156 0.015625 7.390625 -0.765625 C 5.617188 -1.554688 4.210938 -2.75 3.171875 -4.34375 C 2.140625 -5.9375 1.625 -7.929688 1.625 -10.328125 Z M 8.15625 -10.328125 C 8.15625 -8.585938 8.617188 -7.316406 9.546875 -6.515625 C 10.472656 -5.710938 11.710938 -5.3125 13.265625 -5.3125 C 14.785156 -5.3125 16.007812 -5.710938 16.9375 -6.515625 C 17.863281 -7.316406 18.328125 -8.585938 18.328125 -10.328125 C 18.328125 -12.035156 17.863281 -13.289062 16.9375 -14.09375 C 16.007812 -14.894531 14.785156 -15.296875 13.265625 -15.296875 C 11.710938 -15.296875 10.472656 -14.894531 9.546875 -14.09375 C 8.617188 -13.289062 8.15625 -12.035156 8.15625 -10.328125 Z M 8.15625 -10.328125 "/></g></g></g><g fill="#ffffff" fill-opacity="1"><g transform="translate(284.247807, 66.071486)"><g><path d="M 14.859375 -15.296875 C 13.679688 -15.296875 12.648438 -15.054688 11.765625 -14.578125 C 10.890625 -14.109375 10.207031 -13.316406 9.71875 -12.203125 C 9.226562 -11.085938 8.984375 -9.5625 8.984375 -7.625 L 8.984375 0 L 2.453125 0 L 2.453125 -20.609375 L 8.984375 -20.609375 L 8.984375 -18.125 L 7.75 -14.453125 L 9.390625 -14.453125 C 9.796875 -16.296875 10.644531 -17.847656 11.9375 -19.109375 C 13.226562 -20.378906 14.976562 -21.015625 17.1875 -21.015625 C 19.820312 -21.015625 21.882812 -20.164062 23.375 -18.46875 C 24.875 -16.769531 25.625 -14.328125 25.625 -11.140625 L 25.625 0 L 19.09375 0 L 19.09375 -10.125 C 19.09375 -12 18.78125 -13.328125 18.15625 -14.109375 C 17.53125 -14.898438 16.429688 -15.296875 14.859375 -15.296875 Z M 14.859375 -15.296875 "/></g></g></g><g fill="#ffffff" fill-opacity="1"><g transform="translate(311.916381, 66.071486)"><g><path d="M 10.078125 -22.65625 C 8.878906 -22.65625 7.941406 -22.929688 7.265625 -23.484375 C 6.585938 -24.046875 6.25 -24.859375 6.25 -25.921875 C 6.25 -26.953125 6.585938 -27.753906 7.265625 -28.328125 C 7.941406 -28.898438 8.878906 -29.1875 10.078125 -29.1875 C 11.273438 -29.1875 12.226562 -28.898438 12.9375 -28.328125 C 13.644531 -27.753906 14 -26.953125 14 -25.921875 C 14 -24.859375 13.644531 -24.046875 12.9375 -23.484375 C 12.226562 -22.929688 11.273438 -22.65625 10.078125 -22.65625 Z M 19.59375 0 L 1.625 0 L 1.625 -5.71875 L 7.46875 -5.71875 L 7.46875 -15.140625 L 2.453125 -14.890625 L 2.453125 -20.609375 L 10.203125 -21.015625 C 11.347656 -21.066406 12.222656 -20.789062 12.828125 -20.1875 C 13.441406 -19.59375 13.75 -18.726562 13.75 -17.59375 L 13.75 -5.71875 L 19.59375 -5.71875 Z M 19.59375 0 "/></g></g></g><g fill="#ffffff" fill-opacity="1"><g transform="translate(332.320924, 66.071486)"><g><path d="M 1.625 -10.328125 C 1.625 -12.609375 2.109375 -14.546875 3.078125 -16.140625 C 4.046875 -17.734375 5.375 -18.941406 7.0625 -19.765625 C 8.75 -20.597656 10.691406 -21.015625 12.890625 -21.015625 C 14.773438 -21.015625 16.539062 -20.679688 18.1875 -20.015625 C 19.832031 -19.347656 21.179688 -18.347656 22.234375 -17.015625 C 23.296875 -15.679688 23.867188 -14.035156 23.953125 -12.078125 L 17.421875 -12.078125 C 17.316406 -13.003906 16.863281 -13.769531 16.0625 -14.375 C 15.257812 -14.988281 14.203125 -15.296875 12.890625 -15.296875 C 11.347656 -15.296875 10.171875 -14.859375 9.359375 -13.984375 C 8.554688 -13.117188 8.15625 -11.898438 8.15625 -10.328125 C 8.15625 -8.742188 8.554688 -7.507812 9.359375 -6.625 C 10.171875 -5.75 11.347656 -5.3125 12.890625 -5.3125 C 14.203125 -5.3125 15.257812 -5.613281 16.0625 -6.21875 C 16.863281 -6.832031 17.316406 -7.601562 17.421875 -8.53125 L 23.953125 -8.53125 C 23.867188 -6.570312 23.296875 -4.929688 22.234375 -3.609375 C 21.179688 -2.285156 19.832031 -1.285156 18.1875 -0.609375 C 16.539062 0.0664062 14.773438 0.40625 12.890625 0.40625 C 10.691406 0.40625 8.75 -0.00390625 7.0625 -0.828125 C 5.375 -1.660156 4.046875 -2.878906 3.078125 -4.484375 C 2.109375 -6.085938 1.625 -8.035156 1.625 -10.328125 Z M 1.625 -10.328125 "/></g></g></g><g clip-path="url(#e66bc1695b)"><path fill="#ffffff" d="M 93.324219 53.1875 C 93.324219 54.589844 93.253906 55.984375 93.117188 57.378906 C 92.980469 58.769531 92.777344 60.152344 92.503906 61.527344 C 92.230469 62.898438 91.890625 64.253906 91.484375 65.59375 C 91.078125 66.933594 90.605469 68.25 90.070312 69.542969 C 89.535156 70.835938 88.9375 72.101562 88.277344 73.335938 C 87.617188 74.570312 86.898438 75.769531 86.121094 76.933594 C 85.34375 78.097656 84.511719 79.21875 83.625 80.300781 C 82.734375 81.382812 81.796875 82.417969 80.804688 83.40625 C 79.816406 84.398438 78.78125 85.335938 77.699219 86.226562 C 76.617188 87.113281 75.496094 87.945312 74.332031 88.722656 C 73.167969 89.5 71.96875 90.21875 70.734375 90.878906 C 69.5 91.539062 68.234375 92.136719 66.941406 92.671875 C 65.648438 93.207031 64.332031 93.679688 62.992188 94.085938 C 61.652344 94.492188 60.296875 94.832031 58.925781 95.105469 C 57.550781 95.378906 56.167969 95.582031 54.777344 95.71875 C 53.382812 95.855469 51.988281 95.925781 50.585938 95.925781 C 49.1875 95.925781 47.792969 95.855469 46.398438 95.71875 C 45.007812 95.582031 43.625 95.378906 42.25 95.105469 C 40.878906 94.832031 39.523438 94.492188 38.183594 94.085938 C 36.84375 93.679688 35.527344 93.207031 34.234375 92.671875 C 32.941406 92.136719 31.675781 91.539062 30.441406 90.878906 C 29.207031 90.21875 28.007812 89.5 26.84375 88.722656 C 25.679688 87.945312 24.558594 87.113281 23.476562 86.226562 C 22.394531 85.335938 21.359375 84.398438 20.367188 83.40625 C 19.378906 82.417969 18.441406 81.382812 17.550781 80.300781 C 16.664062 79.21875 15.832031 78.097656 15.054688 76.933594 C 14.277344 75.769531 13.558594 74.570312 12.898438 73.335938 C 12.238281 72.101562 11.640625 70.835938 11.105469 69.542969 C 10.570312 68.25 10.097656 66.933594 9.691406 65.59375 C 9.285156 64.253906 8.945312 62.898438 8.671875 61.527344 C 8.398438 60.152344 8.195312 58.769531 8.058594 57.378906 C 7.921875 55.984375 7.851562 54.589844 7.851562 53.1875 C 7.851562 51.789062 7.921875 50.394531 8.058594 49 C 8.195312 47.609375 8.398438 46.226562 8.671875 44.851562 C 8.945312 43.480469 9.285156 42.125 9.691406 40.785156 C 10.097656 39.445312 10.570312 38.128906 11.105469 36.835938 C 11.640625 35.542969 12.238281 34.277344 12.898438 33.042969 C 13.558594 31.808594 14.277344 30.609375 15.054688 29.445312 C 15.832031 28.28125 16.664062 27.160156 17.550781 26.078125 C 18.441406 24.996094 19.378906 23.960938 20.367188 22.96875 C 21.359375 21.980469 22.394531 21.042969 23.476562 20.152344 C 24.558594 19.265625 25.679688 18.433594 26.84375 17.65625 C 28.007812 16.878906 29.207031 16.160156 30.441406 15.5 C 31.675781 14.839844 32.941406 14.242188 34.234375 13.707031 C 35.527344 13.171875 36.84375 12.699219 38.183594 12.292969 C 39.523438 11.886719 40.878906 11.546875 42.25 11.273438 C 43.625 11 45.007812 10.796875 46.398438 10.660156 C 47.792969 10.523438 49.1875 10.453125 50.585938 10.453125 C 51.988281 10.453125 53.382812 10.523438 54.777344 10.660156 C 56.167969 10.796875 57.550781 11 58.925781 11.273438 C 60.296875 11.546875 61.652344 11.886719 62.992188 12.292969 C 64.332031 12.699219 65.648438 13.171875 66.941406 13.707031 C 68.234375 14.242188 69.5 14.839844 70.734375 15.5 C 71.96875 16.160156 73.167969 16.878906 74.332031 17.65625 C 75.496094 18.433594 76.617188 19.265625 77.699219 20.152344 C 78.78125 21.042969 79.816406 21.980469 80.804688 22.96875 C 81.796875 23.960938 82.734375 24.996094 83.625 26.078125 C 84.511719 27.160156 85.34375 28.28125 86.121094 29.445312 C 86.898438 30.609375 87.617188 31.808594 88.277344 33.042969 C 88.9375 34.277344 89.535156 35.542969 90.070312 36.835938 C 90.605469 38.128906 91.078125 39.445312 91.484375 40.785156 C 91.890625 42.125 92.230469 43.480469 92.503906 44.851562 C 92.777344 46.226562 92.980469 47.609375 93.117188 49 C 93.253906 50.394531 93.324219 51.789062 93.324219 53.1875 Z M 93.324219 53.1875 " fill-opacity="1" fill-rule="nonzero"/></g><path fill="#000000" d="M 79.863281 57.804688 C 79.007812 57.804688 78.367188 57.078125 78.367188 56.222656 L 78.367188 50.582031 C 78.367188 49.726562 79.007812 49 79.863281 49 C 80.714844 49 81.359375 49.726562 81.359375 50.582031 L 81.359375 56.265625 C 81.359375 57.121094 80.714844 57.804688 79.863281 57.804688 Z M 79.863281 57.804688 " fill-opacity="1" fill-rule="nonzero"/><path fill="#000000" d="M 25.160156 57.804688 C 24.304688 57.804688 23.664062 57.078125 23.664062 56.222656 L 23.664062 50.582031 C 23.664062 49.726562 24.304688 49 25.160156 49 C 26.015625 49 26.65625 49.726562 26.65625 50.582031 L 26.65625 56.265625 C 26.65625 57.121094 26.015625 57.804688 25.160156 57.804688 Z M 25.160156 57.804688 " fill-opacity="1" fill-rule="nonzero"/><path fill="#000000" d="M 37.125 75.796875 C 36.230469 75.796875 35.628906 74.941406 35.628906 73.917969 L 35.628906 32.890625 C 35.628906 31.863281 36.230469 31.007812 37.125 31.007812 C 38.023438 31.007812 38.621094 31.863281 38.621094 32.890625 L 38.621094 73.960938 C 38.621094 74.984375 37.980469 75.796875 37.125 75.796875 Z M 37.125 75.796875 " fill-opacity="1" fill-rule="nonzero"/><path fill="#000000" d="M 30.714844 65.753906 C 29.816406 65.753906 29.21875 65.027344 29.21875 64.171875 L 29.21875 42.675781 C 29.21875 41.777344 29.816406 41.09375 30.714844 41.09375 C 31.613281 41.09375 32.210938 41.820312 32.210938 42.675781 L 32.210938 64.171875 C 32.210938 65.027344 31.570312 65.753906 30.714844 65.753906 Z M 30.714844 65.753906 " fill-opacity="1" fill-rule="nonzero"/><path fill="#000000" d="M 43.324219 65.753906 C 42.425781 65.753906 41.613281 65.027344 41.613281 64.171875 L 41.613281 42.675781 C 41.613281 41.777344 42.425781 41.09375 43.324219 41.09375 C 44.21875 41.09375 45.03125 41.820312 45.03125 42.675781 L 45.03125 64.171875 C 45.03125 65.027344 44.175781 65.753906 43.324219 65.753906 Z M 43.324219 65.753906 " fill-opacity="1" fill-rule="nonzero"/><path fill="#000000" d="M 55.289062 65.753906 C 54.390625 65.753906 53.578125 65.027344 53.578125 64.171875 L 53.578125 42.675781 C 53.578125 41.777344 54.390625 41.09375 55.289062 41.09375 C 56.1875 41.09375 57 41.820312 57 42.675781 L 57 64.171875 C 57 65.027344 56.144531 65.753906 55.289062 65.753906 Z M 55.289062 65.753906 " fill-opacity="1" fill-rule="nonzero"/><path fill="#000000" d="M 67.894531 65.753906 C 67 65.753906 66.398438 65.027344 66.398438 64.171875 L 66.398438 42.675781 C 66.398438 41.777344 67 41.09375 67.894531 41.09375 C 68.792969 41.09375 69.390625 41.820312 69.390625 42.675781 L 69.390625 64.171875 C 69.390625 65.027344 68.75 65.753906 67.894531 65.753906 Z M 67.894531 65.753906 " fill-opacity="1" fill-rule="nonzero"/><path fill="#000000" d="M 61.699219 60.15625 C 60.800781 60.15625 59.988281 59.429688 59.988281 58.574219 L 59.988281 48.230469 C 59.988281 47.335938 60.800781 46.652344 61.699219 46.652344 C 62.597656 46.652344 63.410156 47.378906 63.410156 48.230469 L 63.410156 58.574219 C 63.410156 59.472656 62.554688 60.15625 61.699219 60.15625 Z M 61.699219 60.15625 " fill-opacity="1" fill-rule="nonzero"/><path fill="#000000" d="M 74.304688 60.113281 C 73.410156 60.113281 72.808594 59.386719 72.808594 58.53125 L 72.808594 48.148438 C 72.808594 47.25 73.410156 46.566406 74.304688 46.566406 C 75.203125 46.566406 75.800781 47.292969 75.800781 48.148438 L 75.800781 58.488281 C 75.800781 59.386719 75.160156 60.113281 74.304688 60.113281 Z M 74.304688 60.113281 " fill-opacity="1" fill-rule="nonzero"/><path fill="#000000" d="M 49.519531 60.15625 C 48.621094 60.15625 48.023438 59.429688 48.023438 58.574219 L 48.023438 48.230469 C 48.023438 47.335938 48.621094 46.652344 49.519531 46.652344 C 50.417969 46.652344 51.015625 47.378906 51.015625 48.230469 L 51.015625 58.574219 C 51.015625 59.472656 50.375 60.15625 49.519531 60.15625 Z M 49.519531 60.15625 " fill-opacity="1" fill-rule="nonzero"/></svg>