<svg xmlns="http://www.w3.org/2000/svg" xmlns:xlink="http://www.w3.org/1999/xlink" width="500" zoomAndPan="magnify" viewBox="0 0 375 374.999991" height="500" preserveAspectRatio="xMidYMid meet" version="1.0"><defs><clipPath id="7d282594a5"><path d="M 11.6875 11.6875 L 363.4375 11.6875 L 363.4375 363.4375 L 11.6875 363.4375 Z M 11.6875 11.6875 " clip-rule="nonzero"/></clipPath></defs><g clip-path="url(#7d282594a5)"><path fill="#ffffff" d="M 363.308594 187.5 C 363.308594 190.375 363.238281 193.253906 363.097656 196.125 C 362.957031 199 362.746094 201.867188 362.464844 204.730469 C 362.179688 207.59375 361.828125 210.449219 361.40625 213.296875 C 360.984375 216.140625 360.492188 218.976562 359.933594 221.796875 C 359.371094 224.621094 358.742188 227.425781 358.042969 230.21875 C 357.34375 233.007812 356.574219 235.78125 355.738281 238.535156 C 354.90625 241.289062 354.003906 244.019531 353.03125 246.726562 C 352.0625 249.4375 351.027344 252.121094 349.925781 254.777344 C 348.824219 257.4375 347.660156 260.066406 346.429688 262.667969 C 345.199219 265.269531 343.90625 267.839844 342.550781 270.375 C 341.195312 272.914062 339.777344 275.417969 338.296875 277.882812 C 336.816406 280.351562 335.277344 282.78125 333.679688 285.175781 C 332.082031 287.566406 330.425781 289.917969 328.710938 292.230469 C 326.996094 294.539062 325.226562 296.808594 323.402344 299.03125 C 321.578125 301.257812 319.699219 303.433594 317.765625 305.566406 C 315.835938 307.699219 313.851562 309.78125 311.816406 311.816406 C 309.78125 313.851562 307.699219 315.835938 305.566406 317.765625 C 303.433594 319.699219 301.257812 321.578125 299.03125 323.402344 C 296.808594 325.226562 294.539062 326.996094 292.230469 328.710938 C 289.917969 330.425781 287.566406 332.082031 285.175781 333.679688 C 282.78125 335.277344 280.351562 336.816406 277.882812 338.296875 C 275.417969 339.777344 272.914062 341.195312 270.375 342.550781 C 267.839844 343.90625 265.269531 345.199219 262.667969 346.429688 C 260.066406 347.660156 257.4375 348.824219 254.777344 349.925781 C 252.121094 351.027344 249.4375 352.0625 246.726562 353.03125 C 244.019531 354.003906 241.289062 354.90625 238.535156 355.738281 C 235.78125 356.574219 233.007812 357.34375 230.21875 358.042969 C 227.425781 358.742188 224.621094 359.371094 221.796875 359.933594 C 218.976562 360.492188 216.140625 360.984375 213.296875 361.40625 C 210.449219 361.828125 207.59375 362.179688 204.730469 362.464844 C 201.867188 362.746094 199 362.957031 196.125 363.097656 C 193.253906 363.238281 190.375 363.308594 187.5 363.308594 C 184.621094 363.308594 181.746094 363.238281 178.871094 363.097656 C 176 362.957031 173.128906 362.746094 170.265625 362.464844 C 167.402344 362.179688 164.550781 361.828125 161.703125 361.40625 C 158.855469 360.984375 156.023438 360.492188 153.199219 359.933594 C 150.378906 359.371094 147.570312 358.742188 144.78125 358.042969 C 141.988281 357.34375 139.21875 356.574219 136.464844 355.738281 C 133.710938 354.90625 130.980469 354.003906 128.269531 353.03125 C 125.5625 352.0625 122.878906 351.027344 120.21875 349.925781 C 117.5625 348.824219 114.933594 347.660156 112.332031 346.429688 C 109.730469 345.199219 107.160156 343.90625 104.621094 342.550781 C 102.085938 341.195312 99.582031 339.777344 97.113281 338.296875 C 94.648438 336.816406 92.214844 335.277344 89.824219 333.679688 C 87.433594 332.082031 85.082031 330.425781 82.769531 328.710938 C 80.457031 326.996094 78.191406 325.226562 75.964844 323.402344 C 73.742188 321.578125 71.5625 319.699219 69.433594 317.765625 C 67.300781 315.835938 65.21875 313.851562 63.183594 311.816406 C 61.148438 309.78125 59.164062 307.699219 57.234375 305.566406 C 55.300781 303.433594 53.421875 301.257812 51.597656 299.03125 C 49.769531 296.808594 48 294.539062 46.289062 292.230469 C 44.574219 289.917969 42.917969 287.566406 41.320312 285.175781 C 39.71875 282.78125 38.179688 280.351562 36.703125 277.882812 C 35.222656 275.417969 33.804688 272.914062 32.449219 270.375 C 31.09375 267.839844 29.800781 265.269531 28.570312 262.667969 C 27.339844 260.066406 26.171875 257.4375 25.070312 254.777344 C 23.96875 252.121094 22.933594 249.4375 21.964844 246.726562 C 20.996094 244.019531 20.09375 241.289062 19.257812 238.535156 C 18.425781 235.78125 17.65625 233.007812 16.957031 230.21875 C 16.257812 227.425781 15.628906 224.621094 15.066406 221.796875 C 14.503906 218.976562 14.015625 216.140625 13.59375 213.296875 C 13.167969 210.449219 12.816406 207.59375 12.535156 204.730469 C 12.253906 201.867188 12.042969 199 11.902344 196.125 C 11.757812 193.253906 11.6875 190.375 11.6875 187.5 C 11.6875 184.621094 11.757812 181.746094 11.902344 178.871094 C 12.042969 176 12.253906 173.128906 12.535156 170.265625 C 12.816406 167.402344 13.167969 164.550781 13.59375 161.703125 C 14.015625 158.855469 14.503906 156.023438 15.066406 153.199219 C 15.628906 150.378906 16.257812 147.570312 16.957031 144.78125 C 17.65625 141.988281 18.425781 139.21875 19.257812 136.464844 C 20.09375 133.710938 20.996094 130.980469 21.964844 128.269531 C 22.933594 125.5625 23.96875 122.878906 25.070312 120.21875 C 26.171875 117.5625 27.339844 114.933594 28.570312 112.332031 C 29.800781 109.730469 31.09375 107.160156 32.449219 104.621094 C 33.804688 102.085938 35.222656 99.582031 36.703125 97.113281 C 38.179688 94.648438 39.71875 92.214844 41.320312 89.824219 C 42.917969 87.433594 44.574219 85.082031 46.289062 82.769531 C 48 80.457031 49.769531 78.191406 51.597656 75.964844 C 53.421875 73.742188 55.300781 71.5625 57.234375 69.433594 C 59.164062 67.300781 61.148438 65.21875 63.183594 63.183594 C 65.21875 61.148438 67.300781 59.164062 69.433594 57.234375 C 71.5625 55.300781 73.742188 53.421875 75.964844 51.597656 C 78.191406 49.769531 80.457031 48 82.769531 46.289062 C 85.082031 44.574219 87.433594 42.917969 89.824219 41.320312 C 92.214844 39.71875 94.648438 38.179688 97.113281 36.703125 C 99.582031 35.222656 102.085938 33.804688 104.621094 32.449219 C 107.160156 31.09375 109.730469 29.800781 112.332031 28.570312 C 114.933594 27.339844 117.5625 26.171875 120.21875 25.070312 C 122.878906 23.96875 125.5625 22.933594 128.269531 21.964844 C 130.980469 20.996094 133.710938 20.09375 136.464844 19.257812 C 139.21875 18.425781 141.988281 17.65625 144.78125 16.957031 C 147.570312 16.257812 150.378906 15.628906 153.199219 15.066406 C 156.023438 14.503906 158.855469 14.015625 161.703125 13.59375 C 164.550781 13.167969 167.402344 12.816406 170.265625 12.535156 C 173.128906 12.253906 176 12.042969 178.871094 11.902344 C 181.746094 11.757812 184.621094 11.6875 187.5 11.6875 C 190.375 11.6875 193.253906 11.757812 196.125 11.902344 C 199 12.042969 201.867188 12.253906 204.730469 12.535156 C 207.59375 12.816406 210.449219 13.167969 213.296875 13.59375 C 216.140625 14.015625 218.976562 14.503906 221.796875 15.066406 C 224.621094 15.628906 227.425781 16.257812 230.21875 16.957031 C 233.007812 17.65625 235.78125 18.425781 238.535156 19.257812 C 241.289062 20.09375 244.019531 20.996094 246.726562 21.964844 C 249.4375 22.933594 252.121094 23.96875 254.777344 25.070312 C 257.4375 26.171875 260.066406 27.339844 262.667969 28.570312 C 265.269531 29.800781 267.839844 31.09375 270.375 32.449219 C 272.914062 33.804688 275.417969 35.222656 277.882812 36.703125 C 280.351562 38.179688 282.78125 39.71875 285.175781 41.320312 C 287.566406 42.917969 289.917969 44.574219 292.230469 46.289062 C 294.539062 48 296.808594 49.769531 299.03125 51.597656 C 301.257812 53.421875 303.433594 55.300781 305.566406 57.234375 C 307.699219 59.164062 309.78125 61.148438 311.816406 63.183594 C 313.851562 65.21875 315.835938 67.300781 317.765625 69.433594 C 319.699219 71.5625 321.578125 73.742188 323.402344 75.964844 C 325.226562 78.191406 326.996094 80.457031 328.710938 82.769531 C 330.425781 85.082031 332.082031 87.433594 333.679688 89.824219 C 335.277344 92.214844 336.816406 94.648438 338.296875 97.113281 C 339.777344 99.582031 341.195312 102.085938 342.550781 104.621094 C 343.90625 107.160156 345.199219 109.730469 346.429688 112.332031 C 347.660156 114.933594 348.824219 117.5625 349.925781 120.21875 C 351.027344 122.878906 352.0625 125.5625 353.03125 128.269531 C 354.003906 130.980469 354.90625 133.710938 355.738281 136.464844 C 356.574219 139.21875 357.34375 141.988281 358.042969 144.78125 C 358.742188 147.570312 359.371094 150.378906 359.933594 153.199219 C 360.492188 156.023438 360.984375 158.855469 361.40625 161.703125 C 361.828125 164.550781 362.179688 167.402344 362.464844 170.265625 C 362.746094 173.128906 362.957031 176 363.097656 178.871094 C 363.238281 181.746094 363.308594 184.621094 363.308594 187.5 Z M 363.308594 187.5 " fill-opacity="1" fill-rule="nonzero"/></g><path fill="#000000" d="M 307.929688 206.488281 C 304.414062 206.488281 301.777344 203.5 301.777344 199.980469 L 301.777344 176.773438 C 301.777344 173.257812 304.414062 170.269531 307.929688 170.269531 C 311.445312 170.269531 314.082031 173.257812 314.082031 176.773438 L 314.082031 200.15625 C 314.082031 203.675781 311.445312 206.488281 307.929688 206.488281 Z M 307.929688 206.488281 " fill-opacity="1" fill-rule="nonzero"/><path fill="#000000" d="M 82.890625 206.488281 C 79.375 206.488281 76.738281 203.5 76.738281 199.980469 L 76.738281 176.773438 C 76.738281 173.257812 79.375 170.269531 82.890625 170.269531 C 86.410156 170.269531 89.046875 173.257812 89.046875 176.773438 L 89.046875 200.15625 C 89.046875 203.675781 86.410156 206.488281 82.890625 206.488281 Z M 82.890625 206.488281 " fill-opacity="1" fill-rule="nonzero"/><path fill="#000000" d="M 132.121094 280.503906 C 128.425781 280.503906 125.964844 276.988281 125.964844 272.769531 L 125.964844 103.988281 C 125.964844 99.769531 128.425781 96.253906 132.121094 96.253906 C 135.8125 96.253906 138.273438 99.769531 138.273438 103.988281 L 138.273438 272.945312 C 138.273438 277.164062 135.636719 280.503906 132.121094 280.503906 Z M 132.121094 280.503906 " fill-opacity="1" fill-rule="nonzero"/><path fill="#000000" d="M 105.746094 239.1875 C 102.054688 239.1875 99.59375 236.199219 99.59375 232.683594 L 99.59375 144.25 C 99.59375 140.558594 102.054688 137.746094 105.746094 137.746094 C 109.441406 137.746094 111.902344 140.734375 111.902344 144.25 L 111.902344 232.683594 C 111.902344 236.199219 109.265625 239.1875 105.746094 239.1875 Z M 105.746094 239.1875 " fill-opacity="1" fill-rule="nonzero"/><path fill="#000000" d="M 157.613281 239.1875 C 153.917969 239.1875 150.578125 236.199219 150.578125 232.683594 L 150.578125 144.25 C 150.578125 140.558594 153.917969 137.746094 157.613281 137.746094 C 161.304688 137.746094 164.644531 140.734375 164.644531 144.25 L 164.644531 232.683594 C 164.644531 236.199219 161.128906 239.1875 157.613281 239.1875 Z M 157.613281 239.1875 " fill-opacity="1" fill-rule="nonzero"/><path fill="#000000" d="M 206.839844 239.1875 C 203.148438 239.1875 199.804688 236.199219 199.804688 232.683594 L 199.804688 144.25 C 199.804688 140.558594 203.148438 137.746094 206.839844 137.746094 C 210.53125 137.746094 213.871094 140.734375 213.871094 144.25 L 213.871094 232.683594 C 213.871094 236.199219 210.355469 239.1875 206.839844 239.1875 Z M 206.839844 239.1875 " fill-opacity="1" fill-rule="nonzero"/><path fill="#000000" d="M 258.703125 239.1875 C 255.011719 239.1875 252.550781 236.199219 252.550781 232.683594 L 252.550781 144.25 C 252.550781 140.558594 255.011719 137.746094 258.703125 137.746094 C 262.394531 137.746094 264.855469 140.734375 264.855469 144.25 L 264.855469 232.683594 C 264.855469 236.199219 262.21875 239.1875 258.703125 239.1875 Z M 258.703125 239.1875 " fill-opacity="1" fill-rule="nonzero"/><path fill="#000000" d="M 233.210938 216.15625 C 229.519531 216.15625 226.179688 213.167969 226.179688 209.652344 L 226.179688 167.105469 C 226.179688 163.414062 229.519531 160.601562 233.210938 160.601562 C 236.902344 160.601562 240.242188 163.589844 240.242188 167.105469 L 240.242188 209.652344 C 240.242188 213.34375 236.726562 216.15625 233.210938 216.15625 Z M 233.210938 216.15625 " fill-opacity="1" fill-rule="nonzero"/><path fill="#000000" d="M 285.074219 215.980469 C 281.382812 215.980469 278.921875 212.992188 278.921875 209.476562 L 278.921875 166.753906 C 278.921875 163.0625 281.382812 160.25 285.074219 160.25 C 288.765625 160.25 291.226562 163.238281 291.226562 166.753906 L 291.226562 209.300781 C 291.226562 212.992188 288.589844 215.980469 285.074219 215.980469 Z M 285.074219 215.980469 " fill-opacity="1" fill-rule="nonzero"/><path fill="#000000" d="M 183.105469 216.15625 C 179.414062 216.15625 176.949219 213.167969 176.949219 209.652344 L 176.949219 167.105469 C 176.949219 163.414062 179.414062 160.601562 183.105469 160.601562 C 186.796875 160.601562 189.257812 163.589844 189.257812 167.105469 L 189.257812 209.652344 C 189.257812 213.34375 186.621094 216.15625 183.105469 216.15625 Z M 183.105469 216.15625 " fill-opacity="1" fill-rule="nonzero"/></svg>