<svg xmlns="http://www.w3.org/2000/svg" xmlns:xlink="http://www.w3.org/1999/xlink" width="250" zoomAndPan="magnify" viewBox="0 0 187.5 74.999997" height="100" preserveAspectRatio="xMidYMid meet" version="1.0"><path fill="#ea4b71" d="M 89.765625 31.726562 C 85.96875 31.726562 82.78125 29.128906 81.875 25.613281 L 72.539062 25.613281 C 70.546875 25.613281 68.847656 27.054688 68.519531 29.019531 L 68.183594 31.027344 C 67.867188 32.9375 66.902344 34.59375 65.539062 35.800781 C 66.902344 37.003906 67.867188 38.664062 68.183594 40.570312 L 68.519531 42.578125 C 68.847656 44.542969 70.546875 45.984375 72.539062 45.984375 L 73.730469 45.984375 C 74.632812 42.46875 77.824219 39.871094 81.617188 39.871094 C 86.117188 39.871094 89.765625 43.519531 89.765625 48.019531 C 89.765625 52.519531 86.117188 56.167969 81.617188 56.167969 C 77.824219 56.167969 74.632812 53.570312 73.730469 50.054688 L 72.539062 50.054688 C 68.554688 50.054688 65.15625 47.175781 64.5 43.25 L 64.167969 41.238281 C 63.839844 39.277344 62.140625 37.835938 60.148438 37.835938 L 56.921875 37.835938 C 56.015625 41.351562 52.828125 43.945312 49.03125 43.945312 C 45.234375 43.945312 42.042969 41.351562 41.140625 37.835938 L 36.554688 37.835938 C 35.648438 41.351562 32.457031 43.945312 28.664062 43.945312 C 24.164062 43.945312 20.515625 40.296875 20.515625 35.800781 C 20.515625 31.300781 24.164062 27.652344 28.664062 27.652344 C 32.457031 27.652344 35.648438 30.25 36.554688 33.761719 L 41.140625 33.761719 C 42.042969 30.25 45.234375 27.652344 49.03125 27.652344 C 52.828125 27.652344 56.015625 30.25 56.921875 33.761719 L 60.148438 33.761719 C 62.140625 33.761719 63.839844 32.324219 64.167969 30.359375 L 64.5 28.347656 C 65.15625 24.421875 68.554688 21.542969 72.539062 21.542969 L 81.875 21.542969 C 82.78125 18.027344 85.96875 15.429688 89.765625 15.429688 C 94.265625 15.429688 97.914062 19.078125 97.914062 23.578125 C 97.914062 28.078125 94.265625 31.726562 89.765625 31.726562 Z M 89.765625 27.652344 C 92.015625 27.652344 93.839844 25.828125 93.839844 23.578125 C 93.839844 21.328125 92.015625 19.503906 89.765625 19.503906 C 87.515625 19.503906 85.691406 21.328125 85.691406 23.578125 C 85.691406 25.828125 87.515625 27.652344 89.765625 27.652344 Z M 28.664062 39.871094 C 30.910156 39.871094 32.734375 38.046875 32.734375 35.800781 C 32.734375 33.550781 30.910156 31.726562 28.664062 31.726562 C 26.414062 31.726562 24.589844 33.550781 24.589844 35.800781 C 24.589844 38.046875 26.414062 39.871094 28.664062 39.871094 Z M 53.105469 35.800781 C 53.105469 38.046875 51.28125 39.871094 49.03125 39.871094 C 46.78125 39.871094 44.957031 38.046875 44.957031 35.800781 C 44.957031 33.550781 46.78125 31.726562 49.03125 31.726562 C 51.28125 31.726562 53.105469 33.550781 53.105469 35.800781 Z M 85.691406 48.019531 C 85.691406 50.269531 83.867188 52.09375 81.617188 52.09375 C 79.371094 52.09375 77.546875 50.269531 77.546875 48.019531 C 77.546875 45.769531 79.371094 43.945312 81.617188 43.945312 C 83.867188 43.945312 85.691406 45.769531 85.691406 48.019531 Z M 85.691406 48.019531 " fill-opacity="1" fill-rule="evenodd"/><path fill="#ffffff" d="M 146.800781 33.046875 L 146.800781 32.851562 C 148.222656 32.140625 149.644531 30.910156 149.644531 28.484375 C 149.644531 24.988281 146.769531 22.886719 142.796875 22.886719 C 138.726562 22.886719 135.820312 25.117188 135.820312 28.546875 C 135.820312 30.878906 137.175781 32.140625 138.664062 32.851562 L 138.664062 33.046875 C 137.015625 33.628906 135.042969 35.375 135.042969 38.285156 C 135.042969 41.8125 137.953125 44.273438 142.765625 44.273438 C 147.578125 44.273438 150.386719 41.8125 150.386719 38.285156 C 150.386719 35.375 148.449219 33.660156 146.800781 33.046875 Z M 142.765625 25.863281 C 144.378906 25.863281 145.574219 26.898438 145.574219 28.644531 C 145.574219 30.390625 144.347656 31.425781 142.765625 31.425781 C 141.183594 31.425781 139.855469 30.390625 139.855469 28.644531 C 139.855469 26.867188 141.117188 25.863281 142.765625 25.863281 Z M 142.765625 41.164062 C 140.890625 41.164062 139.371094 39.96875 139.371094 37.929688 C 139.371094 36.085938 140.632812 34.695312 142.730469 34.695312 C 144.800781 34.695312 146.058594 36.054688 146.058594 37.996094 C 146.058594 39.96875 144.605469 41.164062 142.765625 41.164062 Z M 142.765625 41.164062 " fill-opacity="1" fill-rule="evenodd"/><path fill="#ffffff" d="M 155.371094 43.949219 L 159.507812 43.949219 L 159.507812 35.179688 C 159.507812 32.300781 161.25 31.039062 163.222656 31.039062 C 165.160156 31.039062 166.675781 32.332031 166.675781 34.988281 L 166.675781 43.949219 L 170.8125 43.949219 L 170.8125 34.144531 C 170.8125 29.90625 168.355469 27.449219 164.511719 27.449219 C 162.089844 27.449219 160.734375 28.417969 159.765625 29.679688 L 159.507812 29.679688 L 159.152344 27.769531 L 155.371094 27.769531 Z M 155.371094 43.949219 " fill-opacity="1" fill-rule="nonzero"/><path fill="#ffffff" d="M 118.769531 43.949219 L 114.636719 43.949219 L 114.636719 27.769531 L 118.414062 27.769531 L 118.769531 29.679688 L 119.027344 29.679688 C 119.996094 28.417969 121.355469 27.449219 123.777344 27.449219 C 127.621094 27.449219 130.074219 29.90625 130.074219 34.144531 L 130.074219 43.949219 L 125.941406 43.949219 L 125.941406 34.988281 C 125.941406 32.332031 124.421875 31.039062 122.484375 31.039062 C 120.515625 31.039062 118.769531 32.300781 118.769531 35.179688 Z M 118.769531 43.949219 " fill-opacity="1" fill-rule="nonzero"/></svg>